REM DIRINDEX 1\2\4,1\2\5,1\2\6,1\3\7,1\3\8,1\3\9,1\3\10
REM DIRNAME cjc058,folder01,folder02,folder03,folder04,folder05,folder06,folder07,folder08,folder09
TITLE ""
FILE "b_46.mp3" MP3
  TRACK 01 AUDIO
    TITLE "0:"
    INDEX 01 00:00:00
  TRACK 02 AUDIO
    TITLE "10:cjc058_4007"
    INDEX 01 00:00:11
  TRACK 03 AUDIO
    TITLE "0:"
    INDEX 01 00:02:53
  TRACK 04 AUDIO
    TITLE "7:cjc058_4008"
    INDEX 01 00:03:21
  TRACK 05 AUDIO
    TITLE "0:"
    INDEX 01 00:04:46
  TRACK 06 AUDIO
    TITLE "8:cjc058_4009"
    INDEX 01 00:05:03
  TRACK 07 AUDIO
    TITLE "0:"
    INDEX 01 00:07:19
  TRACK 08 AUDIO
    TITLE "9:cjc058_4010"
    INDEX 01 00:07:58
  TRACK 09 AUDIO
    TITLE "0:"
    INDEX 01 00:12:60
  TRACK 10 AUDIO
    TITLE "7:cjc058_4011"
    INDEX 01 00:13:65
  TRACK 11 AUDIO
    TITLE "0:"
    INDEX 01 00:15:32
  TRACK 12 AUDIO
    TITLE "8:cjc058_4012"
    INDEX 01 00:15:62
  TRACK 13 AUDIO
    TITLE "0:"
    INDEX 01 00:19:15
  TRACK 14 AUDIO
    TITLE "9:cjc058_4013"
    INDEX 01 00:19:52
  TRACK 15 AUDIO
    TITLE "0:"
    INDEX 01 00:24:61
  TRACK 16 AUDIO
    TITLE "7:cjc058_4014"
    INDEX 01 00:25:64
  TRACK 17 AUDIO
    TITLE "0:"
    INDEX 01 00:27:43
  TRACK 18 AUDIO
    TITLE "8:cjc058_4015"
    INDEX 01 00:27:71
  TRACK 19 AUDIO
    TITLE "0:"
    INDEX 01 00:31:33
  TRACK 20 AUDIO
    TITLE "9:cjc058_4016"
    INDEX 01 00:32:00
  TRACK 21 AUDIO
    TITLE "0:"
    INDEX 01 00:35:61
  TRACK 22 AUDIO
    TITLE "7:cjc058_4017"
    INDEX 01 00:36:60
  TRACK 23 AUDIO
    TITLE "0:"
    INDEX 01 00:38:35
  TRACK 24 AUDIO
    TITLE "8:cjc058_4018"
    INDEX 01 00:38:65
  TRACK 25 AUDIO
    TITLE "0:"
    INDEX 01 00:42:00
  TRACK 26 AUDIO
    TITLE "9:cjc058_4019"
    INDEX 01 00:42:37
  TRACK 27 AUDIO
    TITLE "0:"
    INDEX 01 00:48:36
  TRACK 28 AUDIO
    TITLE "7:cjc058_4020"
    INDEX 01 00:49:41
  TRACK 29 AUDIO
    TITLE "0:"
    INDEX 01 00:51:18
  TRACK 30 AUDIO
    TITLE "8:cjc058_4021"
    INDEX 01 00:51:48
  TRACK 31 AUDIO
    TITLE "0:"
    INDEX 01 00:53:27
  TRACK 32 AUDIO
    TITLE "9:cjc058_4022"
    INDEX 01 00:53:66
  TRACK 33 AUDIO
    TITLE "0:"
    INDEX 01 00:58:60
  TRACK 34 AUDIO
    TITLE "7:cjc058_4023"
    INDEX 01 00:59:63
  TRACK 35 AUDIO
    TITLE "0:"
    INDEX 01 01:01:34
  TRACK 36 AUDIO
    TITLE "8:cjc058_4024"
    INDEX 01 01:01:64
  TRACK 37 AUDIO
    TITLE "0:"
    INDEX 01 01:04:60
  TRACK 38 AUDIO
    TITLE "9:cjc058_4025"
    INDEX 01 01:05:26
  TRACK 39 AUDIO
    TITLE "0:"
    INDEX 01 01:10:51
  TRACK 40 AUDIO
    TITLE "7:cjc058_4026"
    INDEX 01 01:11:58
  TRACK 41 AUDIO
    TITLE "0:"
    INDEX 01 01:13:04
  TRACK 42 AUDIO
    TITLE "8:cjc058_4027"
    INDEX 01 01:13:34
  TRACK 43 AUDIO
    TITLE "0:"
    INDEX 01 01:15:54
  TRACK 44 AUDIO
    TITLE "9:cjc058_4028"
    INDEX 01 01:16:20
  TRACK 45 AUDIO
    TITLE "0:"
    INDEX 01 01:18:64
  TRACK 46 AUDIO
    TITLE "7:cjc058_4029"
    INDEX 01 01:19:68
  TRACK 47 AUDIO
    TITLE "0:"
    INDEX 01 01:21:37
  TRACK 48 AUDIO
    TITLE "8:cjc058_4030"
    INDEX 01 01:21:65
  TRACK 49 AUDIO
    TITLE "0:"
    INDEX 01 01:23:60
  TRACK 50 AUDIO
    TITLE "9:cjc058_4031"
    INDEX 01 01:24:22
  TRACK 51 AUDIO
    TITLE "0:"
    INDEX 01 01:28:71
  TRACK 52 AUDIO
    TITLE "7:cjc058_4032"
    INDEX 01 01:29:72
  TRACK 53 AUDIO
    TITLE "0:"
    INDEX 01 01:31:45
  TRACK 54 AUDIO
    TITLE "8:cjc058_4033"
    INDEX 01 01:32:00
  TRACK 55 AUDIO
    TITLE "0:"
    INDEX 01 01:34:16
  TRACK 56 AUDIO
    TITLE "9:cjc058_4034"
    INDEX 01 01:34:57
  TRACK 57 AUDIO
    TITLE "0:"
    INDEX 01 01:38:69
  TRACK 58 AUDIO
    TITLE "7:cjc058_4035"
    INDEX 01 01:39:70
  TRACK 59 AUDIO
    TITLE "0:"
    INDEX 01 01:41:36
  TRACK 60 AUDIO
    TITLE "8:cjc058_4036"
    INDEX 01 01:41:63
  TRACK 61 AUDIO
    TITLE "0:"
    INDEX 01 01:44:68
  TRACK 62 AUDIO
    TITLE "9:cjc058_4037"
    INDEX 01 01:45:32
  TRACK 63 AUDIO
    TITLE "0:"
    INDEX 01 01:48:69
  TRACK 64 AUDIO
    TITLE "7:cjc058_4038"
    INDEX 01 01:49:71
  TRACK 65 AUDIO
    TITLE "0:"
    INDEX 01 01:51:27
  TRACK 66 AUDIO
    TITLE "8:cjc058_4039"
    INDEX 01 01:51:52
  TRACK 67 AUDIO
    TITLE "0:"
    INDEX 01 01:54:35
  TRACK 68 AUDIO
    TITLE "9:cjc058_4040"
    INDEX 01 01:54:74
  TRACK 69 AUDIO
    TITLE "0:"
    INDEX 01 01:59:36
  TRACK 70 AUDIO
    TITLE "7:cjc058_4041"
    INDEX 01 02:00:39
  TRACK 71 AUDIO
    TITLE "0:"
    INDEX 01 02:02:18
  TRACK 72 AUDIO
    TITLE "8:cjc058_4042"
    INDEX 01 02:02:44
  TRACK 73 AUDIO
    TITLE "0:"
    INDEX 01 02:05:44
  TRACK 74 AUDIO
    TITLE "9:cjc058_4043"
    INDEX 01 02:06:06
  TRACK 75 AUDIO
    TITLE "0:"
    INDEX 01 02:13:46
  TRACK 76 AUDIO
    TITLE "7:cjc058_4044"
    INDEX 01 02:14:49
  TRACK 77 AUDIO
    TITLE "0:"
    INDEX 01 02:16:07
  TRACK 78 AUDIO
    TITLE "8:cjc058_4045"
    INDEX 01 02:16:36
  TRACK 79 AUDIO
    TITLE "0:"
    INDEX 01 02:20:05
  TRACK 80 AUDIO
    TITLE "9:cjc058_4046"
    INDEX 01 02:20:46
  TRACK 81 AUDIO
    TITLE "0:"
    INDEX 01 02:24:42
  TRACK 82 AUDIO
    TITLE "7:cjc058_4047"
    INDEX 01 02:25:47
  TRACK 83 AUDIO
    TITLE "0:"
    INDEX 01 02:27:34
  TRACK 84 AUDIO
    TITLE "8:cjc058_4048"
    INDEX 01 02:27:63
  TRACK 85 AUDIO
    TITLE "0:"
    INDEX 01 02:29:17
  TRACK 86 AUDIO
    TITLE "9:cjc058_4049"
    INDEX 01 02:29:58
  TRACK 87 AUDIO
    TITLE "0:"
    INDEX 01 02:37:07
  TRACK 88 AUDIO
    TITLE "7:cjc058_4050"
    INDEX 01 02:38:10
  TRACK 89 AUDIO
    TITLE "0:"
    INDEX 01 02:39:69
  TRACK 90 AUDIO
    TITLE "8:cjc058_4051"
    INDEX 01 02:40:21
  TRACK 91 AUDIO
    TITLE "0:"
    INDEX 01 02:43:59
  TRACK 92 AUDIO
    TITLE "9:cjc058_4052"
    INDEX 01 02:44:21
  TRACK 93 AUDIO
    TITLE "0:"
    INDEX 01 02:47:43
  TRACK 94 AUDIO
    TITLE "7:cjc058_4053"
    INDEX 01 02:48:46
  TRACK 95 AUDIO
    TITLE "0:"
    INDEX 01 02:50:19
  TRACK 96 AUDIO
    TITLE "8:cjc058_4054"
    INDEX 01 02:50:49
  TRACK 97 AUDIO
    TITLE "0:"
    INDEX 01 02:53:65
  TRACK 98 AUDIO
    TITLE "9:cjc058_4055"
    INDEX 01 02:54:29
  TRACK 99 AUDIO
    TITLE "0:"
    INDEX 01 02:58:70
  TRACK 100 AUDIO
    TITLE "7:cjc058_4056"
    INDEX 01 02:59:73
  TRACK 101 AUDIO
    TITLE "0:"
    INDEX 01 03:01:43
  TRACK 102 AUDIO
    TITLE "8:cjc058_4057"
    INDEX 01 03:01:74
  TRACK 103 AUDIO
    TITLE "0:"
    INDEX 01 03:03:48
  TRACK 104 AUDIO
    TITLE "9:cjc058_4058"
    INDEX 01 03:04:14
  TRACK 105 AUDIO
    TITLE "0:"
    INDEX 01 03:08:13
  TRACK 106 AUDIO
    TITLE "7:cjc058_4059"
    INDEX 01 03:09:19
  TRACK 107 AUDIO
    TITLE "0:"
    INDEX 01 03:10:59
  TRACK 108 AUDIO
    TITLE "8:cjc058_4060"
    INDEX 01 03:11:12
  TRACK 109 AUDIO
    TITLE "0:"
    INDEX 01 03:13:66
  TRACK 110 AUDIO
    TITLE "9:cjc058_4061"
    INDEX 01 03:14:30
  TRACK 111 AUDIO
    TITLE "0:"
    INDEX 01 03:20:17
  TRACK 112 AUDIO
    TITLE "7:cjc058_4062"
    INDEX 01 03:21:18
  TRACK 113 AUDIO
    TITLE "0:"
    INDEX 01 03:23:09
  TRACK 114 AUDIO
    TITLE "8:cjc058_4063"
    INDEX 01 03:23:37
  TRACK 115 AUDIO
    TITLE "0:"
    INDEX 01 03:26:41
  TRACK 116 AUDIO
    TITLE "9:cjc058_4064"
    INDEX 01 03:27:07
  TRACK 117 AUDIO
    TITLE "0:"
    INDEX 01 03:33:74
  TRACK 118 AUDIO
    TITLE "7:cjc058_4065"
    INDEX 01 03:35:04
  TRACK 119 AUDIO
    TITLE "0:"
    INDEX 01 03:36:43
  TRACK 120 AUDIO
    TITLE "8:cjc058_4066"
    INDEX 01 03:36:72
  TRACK 121 AUDIO
    TITLE "0:"
    INDEX 01 03:39:41
  TRACK 122 AUDIO
    TITLE "9:cjc058_4067"
    INDEX 01 03:40:08
  TRACK 123 AUDIO
    TITLE "0:"
    INDEX 01 03:45:46
  TRACK 124 AUDIO
    TITLE "7:cjc058_4068"
    INDEX 01 03:46:49
  TRACK 125 AUDIO
    TITLE "0:"
    INDEX 01 03:48:03
  TRACK 126 AUDIO
    TITLE "8:cjc058_4069"
    INDEX 01 03:48:33
  TRACK 127 AUDIO
    TITLE "0:"
    INDEX 01 03:52:01
  TRACK 128 AUDIO
    TITLE "9:cjc058_4070"
    INDEX 01 03:52:42
  TRACK 129 AUDIO
    TITLE "0:"
    INDEX 01 03:56:36
  TRACK 130 AUDIO
    TITLE "7:cjc058_4071"
    INDEX 01 03:57:39
  TRACK 131 AUDIO
    TITLE "0:"
    INDEX 01 03:59:13
  TRACK 132 AUDIO
    TITLE "8:cjc058_4072"
    INDEX 01 03:59:42
  TRACK 133 AUDIO
    TITLE "0:"
    INDEX 01 04:02:35
  TRACK 134 AUDIO
    TITLE "9:cjc058_4073"
    INDEX 01 04:02:72
  TRACK 135 AUDIO
    TITLE "0:"
    INDEX 01 04:10:18
  TRACK 136 AUDIO
    TITLE "7:cjc058_4074"
    INDEX 01 04:11:24
  TRACK 137 AUDIO
    TITLE "0:"
    INDEX 01 04:12:74
  TRACK 138 AUDIO
    TITLE "8:cjc058_4075"
    INDEX 01 04:13:29
  TRACK 139 AUDIO
    TITLE "0:"
    INDEX 01 04:16:45
  TRACK 140 AUDIO
    TITLE "9:cjc058_4076"
    INDEX 01 04:17:11
  TRACK 141 AUDIO
    TITLE "0:"
    INDEX 01 04:21:16
  TRACK 142 AUDIO
    TITLE "7:cjc058_4077"
    INDEX 01 04:22:20
  TRACK 143 AUDIO
    TITLE "0:"
    INDEX 01 04:24:05
  TRACK 144 AUDIO
    TITLE "8:cjc058_4078"
    INDEX 01 04:24:34
  TRACK 145 AUDIO
    TITLE "0:"
    INDEX 01 04:26:16
  TRACK 146 AUDIO
    TITLE "9:cjc058_4079"
    INDEX 01 04:26:57
  TRACK 147 AUDIO
    TITLE "0:"
    INDEX 01 04:32:10
  TRACK 148 AUDIO
    TITLE "7:cjc058_4080"
    INDEX 01 04:33:14
  TRACK 149 AUDIO
    TITLE "0:"
    INDEX 01 04:35:13
  TRACK 150 AUDIO
    TITLE "8:cjc058_4081"
    INDEX 01 04:35:42
  TRACK 151 AUDIO
    TITLE "0:"
    INDEX 01 04:39:08
  TRACK 152 AUDIO
    TITLE "9:cjc058_4082"
    INDEX 01 04:39:51
  TRACK 153 AUDIO
    TITLE "0:"
    INDEX 01 04:46:26
  TRACK 154 AUDIO
    TITLE "7:cjc058_4083"
    INDEX 01 04:47:31
  TRACK 155 AUDIO
    TITLE "0:"
    INDEX 01 04:48:64
  TRACK 156 AUDIO
    TITLE "8:cjc058_4084"
    INDEX 01 04:49:20
  TRACK 157 AUDIO
    TITLE "0:"
    INDEX 01 04:51:66
  TRACK 158 AUDIO
    TITLE "9:cjc058_4085"
    INDEX 01 04:52:31
  TRACK 159 AUDIO
    TITLE "0:"
    INDEX 01 04:58:27
  TRACK 160 AUDIO
    TITLE "7:cjc058_4086"
    INDEX 01 04:59:31
  TRACK 161 AUDIO
    TITLE "0:"
    INDEX 01 05:01:18
  TRACK 162 AUDIO
    TITLE "8:cjc058_4087"
    INDEX 01 05:01:47
  TRACK 163 AUDIO
    TITLE "0:"
    INDEX 01 05:03:42
  TRACK 164 AUDIO
    TITLE "9:cjc058_4088"
    INDEX 01 05:04:04
  TRACK 165 AUDIO
    TITLE "0:"
    INDEX 01 05:07:46
  TRACK 166 AUDIO
    TITLE "7:cjc058_4089"
    INDEX 01 05:08:49
  TRACK 167 AUDIO
    TITLE "0:"
    INDEX 01 05:10:07
  TRACK 168 AUDIO
    TITLE "8:cjc058_4090"
    INDEX 01 05:10:32
  TRACK 169 AUDIO
    TITLE "0:"
    INDEX 01 05:13:39
  TRACK 170 AUDIO
    TITLE "9:cjc058_4091"
    INDEX 01 05:14:01
  TRACK 171 AUDIO
    TITLE "0:"
    INDEX 01 05:18:28
  TRACK 172 AUDIO
    TITLE "7:cjc058_4092"
    INDEX 01 05:19:33
  TRACK 173 AUDIO
    TITLE "0:"
    INDEX 01 05:20:66
  TRACK 174 AUDIO
    TITLE "8:cjc058_4093"
    INDEX 01 05:21:20
  TRACK 175 AUDIO
    TITLE "0:"
    INDEX 01 05:22:53
  TRACK 176 AUDIO
    TITLE "9:cjc058_4094"
    INDEX 01 05:23:17
  TRACK 177 AUDIO
    TITLE "0:"
    INDEX 01 05:26:69
  TRACK 178 AUDIO
    TITLE "7:cjc058_4095"
    INDEX 01 05:27:74
  TRACK 179 AUDIO
    TITLE "0:"
    INDEX 01 05:29:40
  TRACK 180 AUDIO
    TITLE "8:cjc058_4096"
    INDEX 01 05:29:69
  TRACK 181 AUDIO
    TITLE "0:"
    INDEX 01 05:32:61
  TRACK 182 AUDIO
    TITLE "9:cjc058_4097"
    INDEX 01 05:33:28
  TRACK 183 AUDIO
    TITLE "0:"
    INDEX 01 05:39:07
  TRACK 184 AUDIO
    TITLE "7:cjc058_4098"
    INDEX 01 05:40:10
  TRACK 185 AUDIO
    TITLE "0:"
    INDEX 01 05:41:37
  TRACK 186 AUDIO
    TITLE "8:cjc058_4099"
    INDEX 01 05:41:66
  TRACK 187 AUDIO
    TITLE "0:"
    INDEX 01 05:43:28
  TRACK 188 AUDIO
    TITLE "9:cjc058_4100"
    INDEX 01 05:43:69
  TRACK 189 AUDIO
    TITLE "0:"
    INDEX 01 05:47:24
  TRACK 190 AUDIO
    TITLE "7:cjc058_4101"
    INDEX 01 05:48:25
  TRACK 191 AUDIO
    TITLE "0:"
    INDEX 01 05:50:12
  TRACK 192 AUDIO
    TITLE "8:cjc058_4102"
    INDEX 01 05:50:38
  TRACK 193 AUDIO
    TITLE "0:"
    INDEX 01 05:53:24
  TRACK 194 AUDIO
    TITLE "9:cjc058_4103"
    INDEX 01 05:53:64
  TRACK 195 AUDIO
    TITLE "0:"
    INDEX 01 06:00:62
  TRACK 196 AUDIO
    TITLE "7:cjc058_4104"
    INDEX 01 06:01:65
  TRACK 197 AUDIO
    TITLE "0:"
    INDEX 01 06:03:15
  TRACK 198 AUDIO
    TITLE "8:cjc058_4105"
    INDEX 01 06:03:44
  TRACK 199 AUDIO
    TITLE "0:"
    INDEX 01 06:04:67
  TRACK 200 AUDIO
    TITLE "9:cjc058_4106"
    INDEX 01 06:05:33
  TRACK 201 AUDIO
    TITLE "0:"
    INDEX 01 06:09:04
  TRACK 202 AUDIO
    TITLE "7:cjc058_4107"
    INDEX 01 06:10:07
  TRACK 203 AUDIO
    TITLE "0:"
    INDEX 01 06:11:58
  TRACK 204 AUDIO
    TITLE "8:cjc058_4108"
    INDEX 01 06:12:12
  TRACK 205 AUDIO
    TITLE "0:"
    INDEX 01 06:14:40
  TRACK 206 AUDIO
    TITLE "9:cjc058_4109"
    INDEX 01 06:15:04
  TRACK 207 AUDIO
    TITLE "0:"
    INDEX 01 06:19:69
  TRACK 208 AUDIO
    TITLE "7:cjc058_4110"
    INDEX 01 06:20:68
  TRACK 209 AUDIO
    TITLE "0:"
    INDEX 01 06:22:71
  TRACK 210 AUDIO
    TITLE "8:cjc058_4111"
    INDEX 01 06:23:26
  TRACK 211 AUDIO
    TITLE "0:"
    INDEX 01 06:24:64
  TRACK 212 AUDIO
    TITLE "9:cjc058_4112"
    INDEX 01 06:25:30
  TRACK 213 AUDIO
    TITLE "0:"
    INDEX 01 06:28:38
  TRACK 214 AUDIO
    TITLE "7:cjc058_4113"
    INDEX 01 06:29:42
  TRACK 215 AUDIO
    TITLE "0:"
    INDEX 01 06:30:73
  TRACK 216 AUDIO
    TITLE "8:cjc058_4114"
    INDEX 01 06:31:27
  TRACK 217 AUDIO
    TITLE "0:"
    INDEX 01 06:33:61
  TRACK 218 AUDIO
    TITLE "9:cjc058_4115"
    INDEX 01 06:34:27
  TRACK 219 AUDIO
    TITLE "0:"
    INDEX 01 06:40:30
  TRACK 220 AUDIO
    TITLE "7:cjc058_4116"
    INDEX 01 06:41:33
  TRACK 221 AUDIO
    TITLE "0:"
    INDEX 01 06:42:54
  TRACK 222 AUDIO
    TITLE "8:cjc058_4117"
    INDEX 01 06:43:07
  TRACK 223 AUDIO
    TITLE "0:"
    INDEX 01 06:45:58
  TRACK 224 AUDIO
    TITLE "9:cjc058_4118"
    INDEX 01 06:46:25
  TRACK 225 AUDIO
    TITLE "0:"
    INDEX 01 06:50:26
  TRACK 226 AUDIO
    TITLE "7:cjc058_4119"
    INDEX 01 06:51:30
  TRACK 227 AUDIO
    TITLE "0:"
    INDEX 01 06:53:09
  TRACK 228 AUDIO
    TITLE "8:cjc058_4120"
    INDEX 01 06:53:36
  TRACK 229 AUDIO
    TITLE "0:"
    INDEX 01 06:56:31
  TRACK 230 AUDIO
    TITLE "9:cjc058_4121"
    INDEX 01 06:56:68
  TRACK 231 AUDIO
    TITLE "0:"
    INDEX 01 07:00:68
  TRACK 232 AUDIO
    TITLE "7:cjc058_4122"
    INDEX 01 07:01:71
  TRACK 233 AUDIO
    TITLE "0:"
    INDEX 01 07:03:23
  TRACK 234 AUDIO
    TITLE "8:cjc058_4123"
    INDEX 01 07:03:51
  TRACK 235 AUDIO
    TITLE "0:"
    INDEX 01 07:05:65
  TRACK 236 AUDIO
    TITLE "9:cjc058_4124"
    INDEX 01 07:06:31
  TRACK 237 AUDIO
    TITLE "0:"
    INDEX 01 07:12:53
  TRACK 238 AUDIO
    TITLE "7:cjc058_4125"
    INDEX 01 07:13:55
  TRACK 239 AUDIO
    TITLE "0:"
    INDEX 01 07:15:15
  TRACK 240 AUDIO
    TITLE "8:cjc058_4126"
    INDEX 01 07:15:44
  TRACK 241 AUDIO
    TITLE "0:"
    INDEX 01 07:17:47
  TRACK 242 AUDIO
    TITLE "9:cjc058_4127"
    INDEX 01 07:18:13
  TRACK 243 AUDIO
    TITLE "0:"
    INDEX 01 07:21:25
  TRACK 244 AUDIO
    TITLE "7:cjc058_4128"
    INDEX 01 07:22:28
  TRACK 245 AUDIO
    TITLE "0:"
    INDEX 01 07:24:12
  TRACK 246 AUDIO
    TITLE "8:cjc058_4129"
    INDEX 01 07:24:41
  TRACK 247 AUDIO
    TITLE "0:"
    INDEX 01 07:26:10
  TRACK 248 AUDIO
    TITLE "9:cjc058_4130"
    INDEX 01 07:26:52
  TRACK 249 AUDIO
    TITLE "0:"
    INDEX 01 07:30:53
  TRACK 250 AUDIO
    TITLE "7:cjc058_4131"
    INDEX 01 07:31:57
  TRACK 251 AUDIO
    TITLE "0:"
    INDEX 01 07:33:24
  TRACK 252 AUDIO
    TITLE "8:cjc058_4132"
    INDEX 01 07:33:50
  TRACK 253 AUDIO
    TITLE "0:"
    INDEX 01 07:36:17
  TRACK 254 AUDIO
    TITLE "9:cjc058_4133"
    INDEX 01 07:36:58
  TRACK 255 AUDIO
    TITLE "0:"
    INDEX 01 07:42:66
  TRACK 256 AUDIO
    TITLE "7:cjc058_4134"
    INDEX 01 07:43:68
  TRACK 257 AUDIO
    TITLE "0:"
    INDEX 01 07:45:08
  TRACK 258 AUDIO
    TITLE "8:cjc058_4135"
    INDEX 01 07:45:37
  TRACK 259 AUDIO
    TITLE "0:"
    INDEX 01 07:47:03
  TRACK 260 AUDIO
    TITLE "9:cjc058_4136"
    INDEX 01 07:47:44
  TRACK 261 AUDIO
    TITLE "0:"
    INDEX 01 07:50:52
  TRACK 262 AUDIO
    TITLE "7:cjc058_4137"
    INDEX 01 07:51:57
  TRACK 263 AUDIO
    TITLE "0:"
    INDEX 01 07:53:23
  TRACK 264 AUDIO
    TITLE "8:cjc058_4138"
    INDEX 01 07:53:52
  TRACK 265 AUDIO
    TITLE "0:"
    INDEX 01 07:54:60
  TRACK 266 AUDIO
    TITLE "9:cjc058_4139"
    INDEX 01 07:55:24
  TRACK 267 AUDIO
    TITLE "0:"
    INDEX 01 07:58:32
  TRACK 268 AUDIO
    TITLE "7:cjc058_4140"
    INDEX 01 07:59:33
  TRACK 269 AUDIO
    TITLE "0:"
    INDEX 01 08:00:64
  TRACK 270 AUDIO
    TITLE "8:cjc058_4141"
    INDEX 01 08:01:19
  TRACK 271 AUDIO
    TITLE "0:"
    INDEX 01 08:02:30
  TRACK 272 AUDIO
    TITLE "9:cjc058_4142"
    INDEX 01 08:02:73
  TRACK 273 AUDIO
    TITLE "0:"
    INDEX 01 08:08:17
  TRACK 274 AUDIO
    TITLE "7:cjc058_4143"
    INDEX 01 08:09:22
  TRACK 275 AUDIO
    TITLE "0:"
    INDEX 01 08:10:61
  TRACK 276 AUDIO
    TITLE "8:cjc058_4144"
    INDEX 01 08:11:19
  TRACK 277 AUDIO
    TITLE "0:"
    INDEX 01 08:12:52
  TRACK 278 AUDIO
    TITLE "9:cjc058_4145"
    INDEX 01 08:13:18
  TRACK 279 AUDIO
    TITLE "0:"
    INDEX 01 08:18:44
  TRACK 280 AUDIO
    TITLE "7:cjc058_4146"
    INDEX 01 08:19:52
  TRACK 281 AUDIO
    TITLE "0:"
    INDEX 01 08:21:06
  TRACK 282 AUDIO
    TITLE "8:cjc058_4147"
    INDEX 01 08:21:35
  TRACK 283 AUDIO
    TITLE "0:"
    INDEX 01 08:24:06
  TRACK 284 AUDIO
    TITLE "9:cjc058_4148"
    INDEX 01 08:24:47
  TRACK 285 AUDIO
    TITLE "0:"
    INDEX 01 08:29:54
  TRACK 286 AUDIO
    TITLE "7:cjc058_4149"
    INDEX 01 08:30:59
  TRACK 287 AUDIO
    TITLE "0:"
    INDEX 01 08:32:37
  TRACK 288 AUDIO
    TITLE "8:cjc058_4150"
    INDEX 01 08:32:64
  TRACK 289 AUDIO
    TITLE "0:"
    INDEX 01 08:34:22
  TRACK 290 AUDIO
    TITLE "9:cjc058_4151"
    INDEX 01 08:34:63
  TRACK 291 AUDIO
    TITLE "0:"
    INDEX 01 08:40:11
  TRACK 292 AUDIO
    TITLE "7:cjc058_4152"
    INDEX 01 08:41:16
  TRACK 293 AUDIO
    TITLE "0:"
    INDEX 01 08:42:74
  TRACK 294 AUDIO
    TITLE "8:cjc058_4153"
    INDEX 01 08:43:29
  TRACK 295 AUDIO
    TITLE "0:"
    INDEX 01 08:44:69
  TRACK 296 AUDIO
    TITLE "9:cjc058_4154"
    INDEX 01 08:45:33
  TRACK 297 AUDIO
    TITLE "0:"
    INDEX 01 08:50:19
  TRACK 298 AUDIO
    TITLE "7:cjc058_4155"
    INDEX 01 08:51:18
  TRACK 299 AUDIO
    TITLE "0:"
    INDEX 01 08:52:73
  TRACK 300 AUDIO
    TITLE "8:cjc058_4156"
    INDEX 01 08:53:25
  TRACK 301 AUDIO
    TITLE "0:"
    INDEX 01 08:57:37
  TRACK 302 AUDIO
    TITLE "9:cjc058_4157"
    INDEX 01 08:58:03
  TRACK 303 AUDIO
    TITLE "0:"
    INDEX 01 09:02:61
  TRACK 304 AUDIO
    TITLE "7:cjc058_4158"
    INDEX 01 09:03:67
  TRACK 305 AUDIO
    TITLE "0:"
    INDEX 01 09:05:38
  TRACK 306 AUDIO
    TITLE "8:cjc058_4159"
    INDEX 01 09:05:66
  TRACK 307 AUDIO
    TITLE "0:"
    INDEX 01 09:07:55
  TRACK 308 AUDIO
    TITLE "9:cjc058_4160"
    INDEX 01 09:08:19
  TRACK 309 AUDIO
    TITLE "0:"
    INDEX 01 09:16:07
  TRACK 310 AUDIO
    TITLE "7:cjc058_4161"
    INDEX 01 09:17:10
  TRACK 311 AUDIO
    TITLE "0:"
    INDEX 01 09:18:37
  TRACK 312 AUDIO
    TITLE "8:cjc058_4162"
    INDEX 01 09:18:64
  TRACK 313 AUDIO
    TITLE "0:"
    INDEX 01 09:21:12
  TRACK 314 AUDIO
    TITLE "9:cjc058_4163"
    INDEX 01 09:21:51
  TRACK 315 AUDIO
    TITLE "0:"
    INDEX 01 09:26:38
  TRACK 316 AUDIO
    TITLE "7:cjc058_4164"
    INDEX 01 09:27:42
  TRACK 317 AUDIO
    TITLE "0:"
    INDEX 01 09:29:13
  TRACK 318 AUDIO
    TITLE "8:cjc058_4165"
    INDEX 01 09:29:43
  TRACK 319 AUDIO
    TITLE "0:"
    INDEX 01 09:31:14
  TRACK 320 AUDIO
    TITLE "9:cjc058_4166"
    INDEX 01 09:31:55
  TRACK 321 AUDIO
    TITLE "0:"
    INDEX 01 09:37:46
  TRACK 322 AUDIO
    TITLE "7:cjc058_4167"
    INDEX 01 09:38:47
  TRACK 323 AUDIO
    TITLE "0:"
    INDEX 01 09:40:29
  TRACK 324 AUDIO
    TITLE "8:cjc058_4168"
    INDEX 01 09:40:56
  TRACK 325 AUDIO
    TITLE "0:"
    INDEX 01 09:42:16
  TRACK 326 AUDIO
    TITLE "9:cjc058_4169"
    INDEX 01 09:42:57
  TRACK 327 AUDIO
    TITLE "0:"
    INDEX 01 09:46:00
  TRACK 328 AUDIO
    TITLE "7:cjc058_4170"
    INDEX 01 09:47:05
  TRACK 329 AUDIO
    TITLE "0:"
    INDEX 01 09:48:52
  TRACK 330 AUDIO
    TITLE "8:cjc058_4171"
    INDEX 01 09:49:08
  TRACK 331 AUDIO
    TITLE "0:"
    INDEX 01 09:51:52
  TRACK 332 AUDIO
    TITLE "9:cjc058_4172"
    INDEX 01 09:52:20
  TRACK 333 AUDIO
    TITLE "0:"
    INDEX 01 09:55:56
  TRACK 334 AUDIO
    TITLE "7:cjc058_4173"
    INDEX 01 09:56:57
  TRACK 335 AUDIO
    TITLE "0:"
    INDEX 01 09:58:32
  TRACK 336 AUDIO
    TITLE "8:cjc058_4174"
    INDEX 01 09:58:62
  TRACK 337 AUDIO
    TITLE "0:"
    INDEX 01 10:01:70
  TRACK 338 AUDIO
    TITLE "9:cjc058_4175"
    INDEX 01 10:02:36
  TRACK 339 AUDIO
    TITLE "0:"
    INDEX 01 10:05:46
  TRACK 340 AUDIO
    TITLE "7:cjc058_4176"
    INDEX 01 10:06:50
  TRACK 341 AUDIO
    TITLE "0:"
    INDEX 01 10:08:68
  TRACK 342 AUDIO
    TITLE "8:cjc058_4177"
    INDEX 01 10:09:22
  TRACK 343 AUDIO
    TITLE "0:"
    INDEX 01 10:11:45
  TRACK 344 AUDIO
    TITLE "9:cjc058_4178"
    INDEX 01 10:12:09
  TRACK 345 AUDIO
    TITLE "0:"
    INDEX 01 10:16:23
  TRACK 346 AUDIO
    TITLE "7:cjc058_4179"
    INDEX 01 10:17:24
  TRACK 347 AUDIO
    TITLE "0:"
    INDEX 01 10:18:51
  TRACK 348 AUDIO
    TITLE "8:cjc058_4180"
    INDEX 01 10:19:03
  TRACK 349 AUDIO
    TITLE "0:"
    INDEX 01 10:21:04
  TRACK 350 AUDIO
    TITLE "9:cjc058_4181"
    INDEX 01 10:21:47
  TRACK 351 AUDIO
    TITLE "0:"
    INDEX 01 10:24:22
  TRACK 352 AUDIO
    TITLE "7:cjc058_4182"
    INDEX 01 10:25:21
  TRACK 353 AUDIO
    TITLE "0:"
    INDEX 01 10:26:56
  TRACK 354 AUDIO
    TITLE "8:cjc058_4183"
    INDEX 01 10:27:11
  TRACK 355 AUDIO
    TITLE "0:"
    INDEX 01 10:30:27
  TRACK 356 AUDIO
    TITLE "9:cjc058_4184"
    INDEX 01 10:30:70
  TRACK 357 AUDIO
    TITLE "0:"
    INDEX 01 10:34:50
  TRACK 358 AUDIO
    TITLE "7:cjc058_4185"
    INDEX 01 10:35:53
  TRACK 359 AUDIO
    TITLE "0:"
    INDEX 01 10:37:13
  TRACK 360 AUDIO
    TITLE "8:cjc058_4186"
    INDEX 01 10:37:42
  TRACK 361 AUDIO
    TITLE "0:"
    INDEX 01 10:39:10
  TRACK 362 AUDIO
    TITLE "9:cjc058_4187"
    INDEX 01 10:39:49
  TRACK 363 AUDIO
    TITLE "0:"
    INDEX 01 10:43:53
  TRACK 364 AUDIO
    TITLE "7:cjc058_4188"
    INDEX 01 10:44:60
  TRACK 365 AUDIO
    TITLE "0:"
    INDEX 01 10:46:39
  TRACK 366 AUDIO
    TITLE "8:cjc058_4189"
    INDEX 01 10:46:67
  TRACK 367 AUDIO
    TITLE "0:"
    INDEX 01 10:48:50
  TRACK 368 AUDIO
    TITLE "9:cjc058_4190"
    INDEX 01 10:49:18
  TRACK 369 AUDIO
    TITLE "0:"
    INDEX 01 10:54:70
  TRACK 370 AUDIO
    TITLE "7:cjc058_4191"
    INDEX 01 10:55:72
  TRACK 371 AUDIO
    TITLE "0:"
    INDEX 01 10:57:61
  TRACK 372 AUDIO
    TITLE "8:cjc058_4192"
    INDEX 01 10:58:11
  TRACK 373 AUDIO
    TITLE "0:"
    INDEX 01 10:59:67
  TRACK 374 AUDIO
    TITLE "9:cjc058_4193"
    INDEX 01 11:00:32
  TRACK 375 AUDIO
    TITLE "0:"
    INDEX 01 11:05:56
  TRACK 376 AUDIO
    TITLE "7:cjc058_4194"
    INDEX 01 11:06:58
  TRACK 377 AUDIO
    TITLE "0:"
    INDEX 01 11:08:62
  TRACK 378 AUDIO
    TITLE "8:cjc058_4195"
    INDEX 01 11:09:17
  TRACK 379 AUDIO
    TITLE "0:"
    INDEX 01 11:10:67
  TRACK 380 AUDIO
    TITLE "9:cjc058_4196"
    INDEX 01 11:11:31
  TRACK 381 AUDIO
    TITLE "0:"
    INDEX 01 11:15:68
  TRACK 382 AUDIO
    TITLE "7:cjc058_4197"
    INDEX 01 11:16:70
  TRACK 383 AUDIO
    TITLE "0:"
    INDEX 01 11:18:37
  TRACK 384 AUDIO
    TITLE "8:cjc058_4198"
    INDEX 01 11:18:67
  TRACK 385 AUDIO
    TITLE "0:"
    INDEX 01 11:20:46
  TRACK 386 AUDIO
    TITLE "9:cjc058_4199"
    INDEX 01 11:21:10
  TRACK 387 AUDIO
    TITLE "0:"
    INDEX 01 11:25:73
  TRACK 388 AUDIO
    TITLE "7:cjc058_4200"
    INDEX 01 11:27:01
  TRACK 389 AUDIO
    TITLE "0:"
    INDEX 01 11:28:55
  TRACK 390 AUDIO
    TITLE "8:cjc058_4201"
    INDEX 01 11:29:12
  TRACK 391 AUDIO
    TITLE "0:"
    INDEX 01 11:32:08
  TRACK 392 AUDIO
    TITLE "9:cjc058_4202"
    INDEX 01 11:32:49
  TRACK 393 AUDIO
    TITLE "0:"
    INDEX 01 11:37:27
  TRACK 394 AUDIO
    TITLE "7:cjc058_4203"
    INDEX 01 11:38:30
  TRACK 395 AUDIO
    TITLE "0:"
    INDEX 01 11:40:60
  TRACK 396 AUDIO
    TITLE "8:cjc058_4204"
    INDEX 01 11:41:13
  TRACK 397 AUDIO
    TITLE "0:"
    INDEX 01 11:43:14
  TRACK 398 AUDIO
    TITLE "9:cjc058_4205"
    INDEX 01 11:43:55
  TRACK 399 AUDIO
    TITLE "0:"
    INDEX 01 11:48:05
  TRACK 400 AUDIO
    TITLE "7:cjc058_4206"
    INDEX 01 11:49:07
  TRACK 401 AUDIO
    TITLE "0:"
    INDEX 01 11:50:51
  TRACK 402 AUDIO
    TITLE "8:cjc058_4207"
    INDEX 01 11:51:05
  TRACK 403 AUDIO
    TITLE "0:"
    INDEX 01 11:52:62
  TRACK 404 AUDIO
    TITLE "9:cjc058_4208"
    INDEX 01 11:53:26
  TRACK 405 AUDIO
    TITLE "0:"
    INDEX 01 11:57:32
  TRACK 406 AUDIO
    TITLE "7:cjc058_4209"
    INDEX 01 11:58:35
  TRACK 407 AUDIO
    TITLE "0:"
    INDEX 01 12:00:08
  TRACK 408 AUDIO
    TITLE "8:cjc058_4210"
    INDEX 01 12:00:36
  TRACK 409 AUDIO
    TITLE "0:"
    INDEX 01 12:02:13
  TRACK 410 AUDIO
    TITLE "9:cjc058_4211"
    INDEX 01 12:02:52
  TRACK 411 AUDIO
    TITLE "0:"
    INDEX 01 12:06:01
